<svg xmlns="http://www.w3.org/2000/svg" viewBox="0 0 1200 620">
<rect width="1200" height="620" fill="#fbf8f0"/>
<path d="M120 90 C250 55 365 105 450 185 C520 250 570 300 680 305 C790 310 845 260 925 220 C1010 178 1080 210 1110 285 C1130 335 1080 405 1010 420 C920 438 830 390 740 405 C650 420 560 475 450 450 C335 425 270 360 220 290 C170 220 105 165 120 90Z" fill="#24433a"/>
<path d="M200 150 C340 170 470 225 600 315 C735 410 860 330 1010 275" fill="none" stroke="#c7943a" stroke-width="5" stroke-dasharray="10 10"/>
<path d="M570 320 L780 370" fill="none" stroke="#a34b2b" stroke-width="4" stroke-dasharray="8 8"/>
<g font-family="Georgia,serif" fill="#fbf8f0">
<text x="315" y="235" font-size="26">MEXICO CITY</text><text x="505" y="365" font-size="24">OAXACA</text><text x="795" y="350" font-size="24">MÉRIDA</text><text x="990" y="255" font-size="24">CANCÚN</text>
</g>
<g fill="#c7943a" stroke="#fbf8f0" stroke-width="5">
<circle cx="400" cy="250" r="12"/><circle cx="570" cy="350" r="12"/><circle cx="795" cy="370" r="12"/><circle cx="1030" cy="270" r="12"/>
</g>
<g font-family="Arial,sans-serif" fill="#18332c">
<text x="70" y="535" font-size="28" font-weight="700">OUR MEXICO ROUTE</text>
<text x="70" y="565" font-size="17">✈  International flights   ·   🚌  ADO   ·   ✈  Volaris   ·   🚆  Tren Maya</text>
<text x="70" y="595" font-size="14">10.24 — 11.03 · 7 TRAVELERS · Mexico City → Oaxaca → Mérida → Cancún</text>
</g>
</svg>